<svg height='100px' width='100px'  fill="#000000" xmlns="http://www.w3.org/2000/svg" xmlns:xlink="http://www.w3.org/1999/xlink" xml:space="preserve" style="shape-rendering:geometricPrecision;text-rendering:geometricPrecision;image-rendering:optimizeQuality;" viewBox="0 0 100 100" x="0px" y="0px" fill-rule="evenodd" clip-rule="evenodd"><defs><style type="text/css">
   
    .fil0 {fill:#000000}
   
  </style></defs><g><path class="fil0" d="M21.9805 57.48c-9.79614,-10.1221 -13.4411,-19.6513 -16.982,-33.944 15.0438,-0.32953 28.14,0.327168 41.3377,8.75912 2.33151,-1.7197 4.41618,-2.55593 7.67604,-2.68821 7.56974,-11.4922 17.1273,-16.5993 26.053,-21.449 6.16895,11.3812 9.28944,19.9112 6.42289,34.7684 2.95396,-0.800794 4.43744,-1.84017 7.3914,-5.05516 7.00399,43.2322 -20.4923,51.7126 -26.0648,53.1736 -11.7686,3.08388 -45.7445,-1.6949 -57.6028,-32.842 5.12602,0.52087 7.99494,0.39331 11.7686,-0.72284zm64.6611 13.9867l-2.76853 -0.995677c-1.16221,-0.418114 -2.88664,1.15631 -1.66182,2.28663l2.38585 2.19923c-1.22245,1.82364 -2.62443,3.51381 -4.21775,5.04098 -4.00397,1.4256 -7.59691,-1.5756 -8.06227,-5.52288 2.25002,-0.668509 3.56696,-3.77247 3.19136,-5.91619 -0.398035,-2.24884 -2.51341,-2.58663 -4.97484,-2.15317 -2.46026,0.433468 -4.33468,1.47285 -3.93783,3.72405 0.289372,1.64293 1.70907,3.47719 3.41105,4.17995 -0.237403,3.17719 -1.50237,6.77249 -5.02209,7.41856 -2.70475,0.496067 -5.92918,-0.88229 -7.45636,-3.20554 -0.69095,-1.05001 -2.47325,0.18071 -1.95474,1.01812 1.96301,3.16302 6.17131,5.01618 9.80677,4.34885 2.92443,-0.535044 4.98075,-2.64451 5.98351,-5.35162 1.29214,2.18388 3.56341,3.63664 6.08273,3.92365 -2.98349,2.18506 -6.49611,3.8835 -10.5828,4.95476 -7.53904,1.976 -15.8033,0.949614 -23.549,-2.03387l0.767723 -2.89136c0.46772,-1.75986 -1.95828,-2.53467 -2.76616,-1.54017l-2.13545 2.63152c-1.24017,-0.603548 -2.46026,-1.25434 -3.65554,-1.94883l2.08939 -4.32641c0.790164,-1.63938 -1.45513,-2.87246 -2.426,-2.03506l-4.07602 3.51381c-1.08544,-0.772447 -2.13899,-1.58033 -3.15711,-2.41892l3.95909 -4.70791c1.17166,-1.39135 -0.711029,-3.08506 -1.87561,-2.55002l-6.63549 3.04845c-2.87128,-2.98349 -5.28902,-6.21737 -7.08195,-9.56464l9.41464 -0.961425 1.57797 -4.09964c-8.99535,-9.61779 -13.1918,-17.1651 -17.3883,-30.3428 15.3438,0.302365 24.6982,1.77757 36.683,10.5674 2.51577,-2.67286 5.99414,-4.02287 9.70047,-3.68153 5.36579,-10.252 11.8784,-14.3848 22.1364,-20.7191 5.26067,11.8702 5.83351,18.9769 3.81263,30.866l5.15201 3.12876 3.69216 -0.912999c0.232679,3.50554 0.165356,7.01817 -0.232679,10.4363l-2.83349 0.0933078c-1.25552,0.0413389 -2.07521,2.09765 -0.421657,2.6823l2.68112 0.94607c-0.238585,1.22954 -0.524414,2.44018 -0.857487,3.62838l-2.95042 -0.523232c-1.23072,-0.218506 -2.58427,1.61104 -1.13505,2.51931l2.83467 1.77757c-0.459452,1.18938 -0.974417,2.34687 -1.54608,3.46892zm-13.8391 -22.8226c2.73664,0 4.95713,2.17088 4.95713,4.84964 0,2.67876 -2.22049,4.84846 -4.95713,4.84846 -2.73427,0 -4.95594,-2.1697 -4.95594,-4.84846 0,-2.67876 2.22167,-4.84964 4.95594,-4.84964zm-0.910637 2.23821c0.961425,0 1.74214,0.762998 1.74214,1.70553 0,0.941346 -0.780715,1.70553 -1.74214,1.70553 -0.961425,0 -1.74332,-0.764179 -1.74332,-1.70553 0,-0.942527 0.781896,-1.70553 1.74332,-1.70553zm-15.1147 0.601186c2.73545,0 4.95594,2.1697 4.95594,4.84846 0,2.67876 -2.22049,4.84846 -4.95594,4.84846 -2.73545,0 -4.95713,-2.1697 -4.95713,-4.84846 0,-2.67876 2.22167,-4.84846 4.95713,-4.84846zm-0.911818 2.23703c0.962606,0 1.74332,0.764179 1.74332,1.70553 0,0.942527 -0.780715,1.70553 -1.74332,1.70553 -0.961425,0 -1.74332,-0.762998 -1.74332,-1.70553 0,-0.941346 0.781896,-1.70553 1.74332,-1.70553zm21.2387 -35.5645c-6.32249,4.62169 -10.0997,8.817 -13.9702,16.7564 0.858668,0.103938 1.71025,0.229136 2.55474,0.379137 0.830321,-1.67482 1.82954,-3.20436 3.31892,-4.31106 -0.578745,1.95002 -0.441736,3.58467 0.0566934,5.06106l0.291735 0.0791345c1.27796,-3.48782 4.1646,-4.29452 6.82564,-5.47918 -1.85198,1.83781 -3.53625,3.77129 -4.07956,6.36265l0.157088 0.0578745c1.9134,-1.39017 3.77483,-1.79647 5.58548,-1.21891 -1.42324,0.863393 -2.30081,1.69135 -2.63034,2.48742 1.47285,0.875204 2.52167,1.24489 4.19413,3.46892 1.80356,-8.91739 0.628351,-15.4501 -2.30435,-23.6435zm-62.495 12.7702c9.9426,0.334255 17.8135,4.9276 26.699,10.2733 -0.870479,0.58465 -1.20237,0.9567 -2.02679,1.57324 -2.00671,-0.963787 -3.77129,-1.87088 -6.12643,-1.96537 1.91222,1.34647 2.83467,2.83349 3.25869,4.39137 -0.266931,0.237403 -6.81147,-3.08034 -9.52803,-1.55789 3.22916,0.964968 5.51579,1.77167 7.02525,3.7642 -2.18151,0.0177167 -4.58508,-0.187797 -6.40399,1.56143 2.12364,-0.0767723 3.47601,0.656698 3.87405,1.376 -1.42442,1.17639 -1.95356,2.03506 -3.08743,3.53743 -6.65675,-7.62762 -11.2879,-14.3281 -13.6844,-22.9537z"></path></g></svg>