<svg height='100px' width='100px'  fill="#000000" xmlns="http://www.w3.org/2000/svg" xmlns:xlink="http://www.w3.org/1999/xlink" xml:space="preserve" style="shape-rendering:geometricPrecision;text-rendering:geometricPrecision;image-rendering:optimizeQuality;" viewBox="0 0 100 100" x="0px" y="0px" fill-rule="evenodd" clip-rule="evenodd"><defs><style type="text/css">
   
    .fil0 {fill:#000000}
   
  </style></defs><g><path class="fil0" d="M72.6147 42.9488c5.73312,3.98035 14.2655,10.1706 12.0674,22.3974 -1.83545,10.2119 -11.8336,19.3537 -26.1912,22.0903 -1.02639,4.01814 -6.70753,8.59849 -12.1324,7.35714 -5.53823,-1.26851 -7.54022,-6.21265 -6.97565,-10.5709 0.22323,-1.73269 1.49647,-4.252 3.23388,-6.6473 4.71972,2.70947 9.18078,-1.1067 12.1773,-4.79295 2.17206,2.89963 3.66027,8.1981 3.87405,11.8666 10.6985,-2.29844 21.4348,-8.63629 23.4356,-19.7659 1.82127,-10.1292 -4.48586,-15.2706 -11.9529,-20.4557 -0.274018,-2.3386 -1.46812,-5.71304 -2.84175,-8.51582l-0.0129922 0.0118111c-5.47445,-8.88787 -17.9116,-7.06187 -21.7242,5.82524l-0.0271656 0c-1.91458,0 -3.72641,0.426381 -5.33036,1.43033 -3.23979,-1.13032 -6.08391,-4.88272 -6.74297,-9.21031 -4.08428,4.54137 -5.28429,11.4757 -5.50162,11.8076 -6.03902,4.82484 -10.3796,12.3036 -10.3796,20.1982 0,6.18784 4.76697,11.0859 9.78197,14.0977 1.45513,-2.72837 4.96303,-6.1028 8.3729,-8.31266 1.47285,1.91931 3.32601,3.61775 5.3528,4.93823 -1.79883,2.19687 -3.15121,4.7587 -3.52798,7.50596l0.0543311 0.0141733c-0.102757,0.915362 -0.109843,1.81655 -0.0248033,2.68939l-0.07441 -0.0188978c0.162993,1.54135 0.660241,3.1205 1.57915,4.70673 -5.05161,3.339 -13.0253,-0.963787 -12.4749,-8.9233 -7.15045,-4.08428 -11.6588,-10.0513 -11.6588,-16.6974 0,-6.50084 3.25396,-15.7655 10.6926,-21.7077 1.28859,-5.49689 4.40082,-11.4013 7.97014,-14.5596 0.742919,-2.87246 2.80514,-4.74334 5.52406,-4.58508 1.95946,0.113387 3.88468,1.25907 5.41185,3.01656l0.611816 -1.41497c-1.676,-1.83545 -3.76657,-3.039 -5.96461,-3.16656 -0.889377,-0.0519689 -1.76812,0.0814967 -2.59136,0.411027 -0.725203,-1.4823 -1.02048,-3.29294 -0.738195,-5.22169 0.689769,-4.70673 4.55437,-8.33156 8.62802,-8.09534 3.60357,0.209057 6.1654,3.36617 6.23509,7.3477l1.24844 -0.0803156c-0.0602367,-3.30475 -1.53899,-6.03194 -3.72759,-7.5473 1.09961,-3.29412 3.91775,-5.54886 7.12801,-5.36225 4.02523,0.23386 7.14573,4.21893 6.96738,8.89731 -0.0460634,1.21655 -0.310632,2.35986 -0.747644,3.3827l1.4197 -0.0933078c0.327168,-0.98859 0.527957,-2.06576 0.571658,-3.21617 0.0720478,-1.90631 -0.298821,-3.66971 -0.987409,-5.18626 1.17166,-0.846857 1.36655,-1.37127 4.05712,-1.21536 2.68939,0.155907 5.98233,3.0827 7.02407,7.4162 1.74332,7.25321 -1.15395,14.3824 -4.36893,18.6415 1.66655,2.95868 2.94687,6.4595 3.27995,9.31307zm-27.8128 0.729927c5.18508,0 9.68984,3.4642 10.2272,8.11187 5.51697,0.934259 12.3674,1.13859 11.3269,6.74887 -0.835046,4.50476 -5.80634,4.04295 -10.004,2.81223 1.0252,6.38391 -4.0583,15.4029 -10.558,15.4029 -6.88588,0 -12.4666,-9.84102 -10.6938,-16.3466 -3.84216,1.69253 -8.81818,3.86578 -9.99102,-2.21695 -0.764179,-3.96381 4.09491,-5.88666 9.64378,-6.86344 1.07009,-2.32679 2.64097,-7.64888 10.0489,-7.64888zm9.13708 16.8651c-0.38268,-0.142915 -0.747644,-0.283467 -1.08662,-0.420476 -2.29136,1.15867 -5.26185,2.79215 -8.39652,3.58822 -2.30199,-0.681501 -5.27012,-2.03742 -6.98628,-3.31774 -0.272837,4.2898 3.90476,10.1682 8.28077,9.81031 4.23192,-0.346066 8.08707,-5.3965 8.18865,-9.66031zm-9.42527 0.434649c2.69057,-0.803156 5.64571,-2.42837 8.21463,-3.72759 2.23821,0.897645 8.20873,3.55751 10.4906,1.90041 0.600005,-0.43583 0.801975,-1.87088 0.448822,-2.38112 -1.04646,-1.50946 -8.48747,-2.29608 -11.015,-2.72482 -0.543311,-4.70201 -3.03309,-7.90164 -8.30203,-7.75282 -4.83901,0.135828 -6.05084,3.59176 -7.79061,7.37604 -1.88624,0.333073 -9.36149,1.52245 -8.87842,4.02641 0.826778,4.28271 7.26147,-0.0897645 9.6485,-1.04765 2.09057,2.11891 4.33232,3.35199 7.18352,4.33114zm-12.1052 -19.962c-2.0008,0 -3.62483,1.62403 -3.62483,3.62483 0,2.00317 1.62403,3.62719 3.62483,3.62719 2.00317,0 3.62719,-1.62403 3.62719,-3.62719 0,-2.0008 -1.62403,-3.62483 -3.62719,-3.62483zm0.941346 1.07363c-0.592918,0 -1.07481,0.481894 -1.07481,1.07481 0,0.592918 0.481894,1.07481 1.07481,1.07481 0.592918,0 1.07363,-0.481894 1.07363,-1.07481 0,-0.592918 -0.480712,-1.07481 -1.07363,-1.07481zm25.3833 -2.68585c2.00198,0 3.62601,1.62403 3.62601,3.62601 0,2.00198 -1.62403,3.62601 -3.62601,3.62601 -2.00198,0 -3.62601,-1.62403 -3.62601,-3.62601 0,-2.00198 1.62403,-3.62601 3.62601,-3.62601zm-0.940165 1.07481c0.592918,0 1.07481,0.480712 1.07481,1.07363 0,0.594099 -0.481894,1.07481 -1.07481,1.07481 -0.592918,0 -1.07481,-0.480712 -1.07481,-1.07481 0,-0.592918 0.481894,-1.07363 1.07481,-1.07363z"></path></g></svg>