<svg height='100px' width='100px'  fill="#000000" xmlns="http://www.w3.org/2000/svg" xmlns:xlink="http://www.w3.org/1999/xlink" xml:space="preserve" style="shape-rendering:geometricPrecision;text-rendering:geometricPrecision;image-rendering:optimizeQuality;" viewBox="0 0 100 100" x="0px" y="0px" fill-rule="evenodd" clip-rule="evenodd"><defs><style type="text/css">
   
    .fil0 {fill:#000000}
   
  </style></defs><g><path class="fil0" d="M49.1153 22.4199c6.83273,0 12.3403,2.439 16.6974,6.59533 3.39097,-3.75239 7.63471,-6.42052 10.6135,-6.42052 3.85042,0 4.13153,4.45515 0.628351,9.94968 -1.29096,2.02324 -2.92207,3.91657 -4.67956,5.5087 0.122836,0.237403 0.243309,0.475988 0.362601,0.718116 7.92762,-6.30005 21.8624,-4.3772 21.8624,3.08034 0,6.14887 -9.48787,10.9572 -17.3765,9.92724 3.5327,14.9458 1.75986,25.8026 -27.0404,25.8026 -28.6857,0 -30.9061,-11.3446 -28.5357,-25.6951 -7.6536,0.474807 -16.2474,-4.20121 -16.2474,-10.0347 0,-7.03706 12.4123,-9.18905 20.588,-3.98625 0.100394,-0.198427 0.20197,-0.394491 0.305908,-0.589375 -1.43269,-1.4067 -2.76498,-3.01774 -3.85633,-4.73153 -3.50436,-5.49453 -3.22325,-9.94968 0.62717,-9.94968 2.81695,0 6.76541,2.38466 10.0536,5.81816 4.26145,-3.75121 9.61307,-5.99296 15.997,-5.99296zm-8.69534 21.3143c1.85671,0 3.36262,1.50592 3.36262,3.36262 0,1.85671 -1.50592,3.36262 -3.36262,3.36262 -1.85789,0 -3.36262,-1.50592 -3.36262,-3.36262 0,-1.85671 1.50474,-3.36262 3.36262,-3.36262zm19.16 0c1.85789,0 3.36262,1.50592 3.36262,3.36262 0,1.85671 -1.50474,3.36262 -3.36262,3.36262 -1.85671,0 -3.36262,-1.50592 -3.36262,-3.36262 0,-1.85671 1.50592,-3.36262 3.36262,-3.36262zm-22.6171 21.7561c6.70517,8.1166 20.36,7.73392 26.0364,0.0909456 0.434649,-0.58465 1.82718,0.368507 1.39844,0.953157 -6.31068,8.59259 -21.3344,8.99771 -28.7412,0.0330711 -0.472445,-0.571658 0.889377,-1.58387 1.30631,-1.07717zm-14.8749 -16.0513c0.322443,-1.62403 0.719297,-3.21499 1.18938,-4.75988 -4.81185,-3.63192 -11.6139,-8.75676 -15.3485,-3.66853 -0.974417,3.30475 4.03704,7.56266 10.5119,8.3729 1.17639,0.146458 2.42364,0.18071 3.64727,0.0555122zm53.2575 -4.29925c0.450004,1.32993 0.864574,2.70002 1.24017,4.10436 1.46222,0.29764 3.15711,0.366145 4.97366,0.139371 3.31538,-0.41457 12.6119,-3.79137 10.3678,-8.71779 -3.4016,-5.89965 -10.1847,1.00276 -16.5816,4.47405zm-25.5982 7.6536c12.1501,0 22.0041,5.27603 22.0041,11.7828 0,4.06421 -3.8457,7.64888 -9.69338,9.76661 14.7556,-2.50986 15.9828,-9.77842 12.3981,-23.7439 -2.26537,-8.82409 -6.30596,-17.6458 -13.4222,-22.3325 -1.71616,6.57761 -6.12288,11.2607 -11.2867,11.2607 -5.33036,0 -9.85283,-4.9902 -11.4438,-11.9032 -7.73628,4.44689 -12.2316,13.571 -13.9607,22.8179 -2.36577,12.6603 -1.33702,20.4202 11.9635,23.4616 -5.20752,-2.15553 -8.56306,-5.53115 -8.56306,-9.32724 0,-6.50674 9.85401,-11.7828 22.0041,-11.7828z"></path></g></svg>