<svg height='100px' width='100px'  fill="#000000" xmlns="http://www.w3.org/2000/svg" xmlns:xlink="http://www.w3.org/1999/xlink" xml:space="preserve" style="shape-rendering:geometricPrecision;text-rendering:geometricPrecision;image-rendering:optimizeQuality;" viewBox="0 0 100 100" x="0px" y="0px" fill-rule="evenodd" clip-rule="evenodd"><defs><style type="text/css">
   
    .fil0 {fill:#000000}
   
  </style></defs><g><path class="fil0" d="M59.2292 26.0305c3.99688,0.700399 8.89731,0.962606 12.2316,-1.53426 3.56696,-2.67049 9.42527,-6.64612 14.0907,-4.63704 3.87641,1.67009 5.19689,6.65202 5.83233,10.4186 1.85907,11.0221 -0.0460634,20.588 -10.7954,25.5439 -6.32722,2.91735 -11.3517,2.89372 -11.7013,11.3399 -0.431106,10.4422 -10.7906,14.8395 -19.8628,16.2486 -12.7206,1.976 -27.7727,-0.400397 -39.7468,-5.24177l-1.28859 -0.52087c0.107481,-4.92169 0.217325,-9.84929 0.764179,-14.745 0.661423,-5.91973 1.95828,-11.4828 4.11736,-17.021 -1.17048,-5.57603 -3.07325,-16.858 2.14962,-20.4439 4.60043,-3.15829 11.3635,1.84608 11.8206,1.91694l10.7965 -2.51931c1.55789,-4.03586 3.82562,-8.42487 8.80755,-8.89259 5.97406,-0.561028 10.3879,5.37524 12.7844,10.0879zm-37.4011 36.2861c3.14058,0.83977 6.60005,2.41774 6.15832,-3.11932 -0.188978,-2.37994 0.981504,-5.73548 3.84452,-5.96343 2.91616,-0.232679 5.55595,3.05317 7.28864,2.22403 1.56261,-0.747644 -0.206695,-3.76893 3.05435,-5.90083l-0.00118111 -0.00118111c1.54608,-1.00985 3.45829,-0.97796 5.19453,-0.04252 1.40198,0.753549 5.34099,2.45081 5.50162,-0.281105 0.184253,-3.12876 4.28035,-4.82248 7.50006,-2.92798 1.75986,1.03465 4.28744,1.89214 4.95594,-0.737014 0.614178,-2.41655 4.34413,-3.62719 7.35714,-2.63978 3.37916,1.10906 5.0835,-1.8012 5.72603,-4.74216 1.04292,-4.77169 6.78667,-6.74887 11.0422,-7.25203 -0.0177167,-0.1063 -0.0342522,-0.2126 -0.0519689,-0.320081 -1.83899,-10.8981 -6.77249,-11.9611 -16.7316,-4.50476 -3.15121,2.35986 -7.38549,2.77325 -12.104,2.16143 -3.32129,2.45553 -7.06069,4.95594 -11.3375,5.11894 -5.05634,0.193702 -8.89968,-3.02246 -12.3379,-6.31068l-7.64888 1.78466 1.87088 1.21891 0.210238 0.269293c1.19174,1.52954 1.6323,3.60593 1.18347,5.47327 -1.17875,4.91697 -3.71578,9.15598 -6.25989,13.4552 -1.19056,2.00907 -5.36697,1.65592 -6.36501,-0.453547 -3.49609,-7.39848 -2.55002,-14.7485 -0.46772,-22.3762 -6.85517,-0.866936 -6.71226,9.06503 -4.44452,19.6065 -4.23901,10.5828 -4.70319,19.6631 -4.9335,30.2447 23.2112,9.38393 56.1312,8.00557 56.8434,-9.2233 0.409846,-9.92016 6.94257,-10.3513 12.8694,-13.0844 7.06895,-3.25869 11.5513,-9.2174 9.91189,-21.6592 -3.63546,0.421657 -8.96346,2.03978 -9.8611,6.15005 -0.824416,3.77247 -3.28821,7.19061 -7.55321,5.79217 -2.25238,-0.739376 -5.14847,0.0980323 -5.54178,1.64056 -0.944889,3.70279 -4.43271,3.14648 -7.04769,1.60867 -2.30199,-1.35474 -5.24886,-0.259845 -5.36933,1.79057 -0.115749,1.97128 -1.51891,2.90435 -3.40042,2.79333 -2.73782,-0.160631 -4.31696,-1.84726 -6.0721,-1.89687 -1.60395,-0.0460634 -3.35081,1.31812 -3.39688,2.94215 -0.128741,4.48468 -3.19963,4.57208 -6.45123,2.50986 -1.86852,-1.18465 -3.68861,-1.62875 -4.81894,0.152363 -0.612997,0.96733 -0.820873,2.28663 -0.742919,3.26932 0.512602,6.42525 -3.34491,5.90792 -7.1658,4.81775 -0.278742,-0.0791345 -0.549217,-0.155907 -0.773628,-0.216143l0.366145 -1.37127zm0.986228 -29.9743c1.87561,0 1.87561,2.86183 0,2.86183 -1.87679,0 -1.87679,-2.86183 0,-2.86183zm-0.954338 -3.72877c3.23152,0 5.85359,2.67994 5.85359,5.98351 0,4.24964 -4.27917,7.13628 -8.08117,5.53351 0.205513,2.72364 0.865755,5.29492 2.06695,7.83431 1.15276,0.745281 1.6571,0.889377 2.81105,0.288191 2.24647,-3.79491 4.88272,-8.09652 6.03548,-12.8977 0.17008,-1.22363 0.19134,-2.47443 -0.814967,-3.76657 -2.85947,-1.84372 -5.79099,-3.89885 -8.41306,-4.47996 -0.146458,0.536225 -0.284648,1.06418 -0.413389,1.58387 0.310632,-0.0519689 0.629533,-0.0791345 0.955519,-0.0791345zm30.5235 -5.55004c1.87561,0 1.87561,2.86183 0,2.86183 -1.87679,0 -1.87679,-2.86183 0,-2.86183zm1.676 6.94848c-4.69728,0.725203 -8.55361,-3.86224 -6.41934,-8.05518 -2.15907,0.174805 -4.31106,0.354333 -6.69454,0.406302 -0.909456,1.83072 -1.20946,2.51695 -1.76931,4.11736 5.77091,5.51933 10.0324,5.8843 14.8832,3.53152zm-11.641 -9.71346c3.10987,-0.141733 6.20556,-0.479531 9.31543,-0.644887 -3.19136,-2.37167 -6.59178,-2.439 -9.31543,0.644887z"></path></g></svg>