<svg height='100px' width='100px'  fill="#000000" xmlns="http://www.w3.org/2000/svg" xmlns:xlink="http://www.w3.org/1999/xlink" xml:space="preserve" style="shape-rendering:geometricPrecision;text-rendering:geometricPrecision;image-rendering:optimizeQuality;" viewBox="0 0 100 100" x="0px" y="0px" fill-rule="evenodd" clip-rule="evenodd"><defs><style type="text/css">
   
    .fil0 {fill:#000000}
   
  </style></defs><g><path class="fil0" d="M49.7083 21.5163c7.604,0 14.5749,2.34451 19.995,6.23981 0.511421,-0.248033 1.39371,-0.416932 2.76616,-0.519689 10.4895,-0.790164 21.0226,7.11384 21.1537,20.6057 0.132285,13.4907 -4.08665,19.2545 -11.0245,19.2545 -3.21853,0 -5.61619,-1.04765 -6.89533,-3.64845 -3.90003,5.02681 -9.70519,8.85952 -16.5261,10.728 -2.11301,2.60671 -5.56776,4.30633 -9.46897,4.30633 -3.90239,0 -7.35714,-1.69962 -9.46897,-4.30633 -6.62013,-1.81301 -12.2847,-5.478 -16.1777,-10.2863 -1.32639,2.27955 -3.62956,3.20672 -6.66029,3.20672 -6.93667,0 -11.1568,-5.76382 -11.0245,-19.2545 0.131103,-13.4918 10.6654,-21.3958 21.1549,-20.6057 1.07954,0.0803156 1.85553,0.203151 2.38703,0.37205 5.39059,-3.80672 12.28,-6.09217 19.7895,-6.09217zm22.1116 7.71266c1.52718,1.72442 2.64687,2.86656 3.92602,4.83429 2.77207,4.26263 3.57404,8.87369 2.34096,13.8308 -0.898826,3.61066 -3.1831,13.4694 0.615359,16.2745 1.81655,1.34174 5.36697,1.26615 7.41029,0.248033 5.17091,-2.57482 5.6339,-11.6635 5.58666,-16.5556 -0.112206,-11.4839 -8.91503,-19.8628 -19.8793,-18.632zm-43.6397 0c-6.06265,-0.68032 -11.9706,1.69253 -15.7915,6.47367 -2.77797,3.47719 -4.04413,7.74101 -4.08665,12.1584 -0.0484256,4.89216 0.41457,13.9808 5.58548,16.5556 2.0445,1.01812 5.59374,1.09371 7.41029,-0.248033 3.79964,-2.80514 1.51419,-12.6639 0.615359,-16.2745 -1.23308,-4.95713 -0.431106,-9.56819 2.34096,-13.8308 1.27914,-1.96773 2.40002,-3.10987 3.92602,-4.83429zm-3.28703 32.601c0.824416,-3.09924 0.544492,-7.74337 -1.11143,-14.4001 -2.38821,-9.60008 4.30515,-14.908 6.44887,-17.6694 5.18036,-3.92956 12.0025,-6.31895 19.4777,-6.31895 8.57487,0 16.2911,3.14294 21.6557,8.15085 2.73782,3.06971 6.79494,8.03628 4.85437,15.8375 -1.54962,6.23036 -1.8945,10.6985 -1.25552,13.7859 -3.2705,4.71027 -8.29849,8.42841 -14.3127,10.4942 1.26025,-3.05435 0.794888,-6.42761 -1.14332,-9.0922 3.83861,1.36773 9.32251,-2.29372 9.8859,-7.34651 0.504335,-4.53193 -2.51577,-8.10715 -6.88588,-8.10715 -6.14651,0 -9.88827,6.97092 -6.83273,12.1714 -3.66617,-1.93939 -8.2666,-1.93939 -11.9328,0.00118111 3.05554,-5.20162 -0.686226,-12.1725 -6.83273,-12.1725 -4.37011,0 -7.39022,3.57523 -6.88588,8.10715 0.56339,5.05398 6.04965,8.71424 9.8859,7.34651 -1.9382,2.66459 -2.40356,6.03784 -1.14332,9.0922 -5.75083,-1.97482 -10.5993,-5.46146 -13.8722,-9.88zm24.8152 6.65911c2.91498,0 5.27957,1.59804 5.27957,3.5705 0,1.97128 -2.36459,3.5705 -5.27957,3.5705 -2.91616,0 -5.27957,-1.59923 -5.27957,-3.5705 0,-1.97246 2.3634,-3.5705 5.27957,-3.5705zm-11.2997 -19.0537c1.37481,0 2.64687,0.379137 3.69097,1.02284 -1.26497,-1.45867 -3.09569,-2.39648 -5.19099,-2.39648 -3.98271,0 -6.42052,3.27168 -5.99296,7.11029 0.399216,3.57759 3.57286,6.48194 6.92131,6.83982 2.08584,0.224411 4.17523,-1.44332 5.1839,-3.22443 -1.1256,0.983866 -2.60908,1.5319 -3.93901,1.41261 -2.576,-0.23386 -5.84532,-2.1201 -6.25517,-5.22051 -0.408665,-3.09924 2.0386,-5.54414 5.58193,-5.54414zm-1.59096 0.719297c0.842133,0 1.526,0.598824 1.526,1.33702 0,0.737014 -0.752368,1.28033 -1.36655,1.22599 -1.86734,-0.167718 -2.04332,-2.56301 -0.15945,-2.56301zm29.7711 4.82484c0.409846,-3.09924 -2.0386,-5.54414 -5.58193,-5.54414 -1.37363,0 -2.64687,0.379137 -3.69097,1.02284 1.26497,-1.45867 3.09569,-2.39648 5.19099,-2.39648 3.98271,0 6.42052,3.27168 5.99296,7.11029 -0.399216,3.57759 -3.57286,6.48194 -6.92131,6.83982 -2.08584,0.224411 -4.17523,-1.44332 -5.1839,-3.22443 1.1256,0.983866 2.61026,1.5319 3.93901,1.41261 2.576,-0.23386 5.84532,-2.1201 6.25517,-5.22051zm-3.99098 -4.82484c-0.842133,0 -1.526,0.598824 -1.526,1.33702 0,0.737014 0.752368,1.28033 1.36655,1.22599 1.86734,-0.167718 2.04332,-2.56301 0.15945,-2.56301zm-12.8895 9.0107c5.72012,0 10.3595,4.03822 10.3595,9.01661 0,4.97957 -4.63941,9.01779 -10.3595,9.01779 -5.7213,0 -10.3607,-4.03822 -10.3607,-9.01779 0,-4.97839 4.63941,-9.01661 10.3607,-9.01661z"></path></g></svg>