<svg height='100px' width='100px'  fill="#000000" xmlns="http://www.w3.org/2000/svg" xmlns:xlink="http://www.w3.org/1999/xlink" xml:space="preserve" style="shape-rendering:geometricPrecision;text-rendering:geometricPrecision;image-rendering:optimizeQuality;" viewBox="0 0 100 100" x="0px" y="0px" fill-rule="evenodd" clip-rule="evenodd"><defs><style type="text/css">
   
    .fil0 {fill:#000000}
   
  </style></defs><g><path class="fil0" d="M86.0617 62.6155c-1.44686,0 -2.8949,1.61694 -2.8949,3.30829 0,1.69135 0.940165,2.86065 2.20632,3.2138 -0.486618,-0.503154 -0.787801,-0.820873 -0.787801,-1.97364 0,-1.15158 1.62757,-2.77679 2.65868,-2.77679 1.02993,0 1.13859,0.20197 1.58033,0.544492 -0.368507,-1.34292 -1.31458,-2.31616 -2.76262,-2.31616zm-36.3948 -36.2164c2.77207,-1.71379 5.09059,-4.11972 8.38471,-4.1268 1.64056,-0.00354333 0.0944889,2.91144 1.24489,2.92207 0.709848,-2.85002 1.26733,-5.71894 2.51695,-8.42487 1.2508,-2.70593 5.10595,-2.20632 5.80162,1.08072l1.376 6.50202c3.61538,-0.145277 6.78194,0.262207 8.48038,2.42246 0.727565,0.925992 -1.28269,2.0008 -4.50358,1.97009 1.75041,1.70553 5.10595,3.42522 4.22129,5.62918 -0.0933078,0.232679 -0.224411,0.412208 -0.386224,0.548036 4.01932,4.01696 5.79808,8.48156 6.85045,14.2714 3.83861,5.10476 9.3674,8.51227 10.7942,14.047 1.89332,7.33707 -1.03938,14.7651 -9.267,13.995 -1.15749,3.10632 -2.98349,6.03194 -6.75242,4.57445 -7.11856,-2.75553 -8.43196,-11.3635 -17.1793,-15.8281 -1.11851,-0.571658 -2.2134,-1.07009 -3.26932,-1.54135 -4.54964,6.62722 -11.2099,11.2312 -11.5265,11.6635l-3.41223 8.87251c-15.3497,-5.55831 -25.1742,-12.5068 -33.1562,-25.8404 -2.0386,1.41143 -3.82326,1.72442 -4.49649,0.100394 -1.71025,-4.13153 2.52404,-8.04455 7.09021,-9.15598 4.55555,-1.46222 9.13354,-3.00475 14.4296,-7.0595 5.40004,-4.96185 10.5946,-8.9292 16.4801,-12.9686 -0.304727,-0.900007 -0.667328,-1.84962 -1.11497,-2.85947 -0.925992,-2.09293 0.132285,-4.04413 2.23348,-2.96223 1.65946,0.855125 3.44294,1.49647 5.16028,2.16852zm-3.93901 12.5174c-2.38112,2.59018 -4.76342,5.63036 -8.05754,9.8552 -0.748825,0.962606 -0.687407,-3.30239 -1.03229,-4.47287 -2.14372,4.45161 -5.31028,8.40597 -9.70519,10.7375 -1.25907,0.668509 -1.55907,-1.69844 -0.412208,-4.74925 -2.61616,4.05948 -4.69492,6.91659 -7.22722,7.84612 -2.23703,0.822054 -4.86618,0.646068 -5.36933,-2.89018 -0.90355,1.11969 -1.8697,2.12482 -2.81813,2.94097 7.52959,13.1564 16.8722,19.6301 31.0006,24.7467 1.00158,-2.60317 2.00198,-5.20516 3.00357,-7.80833 4.00515,-3.20199 8.34219,-6.92486 11.2761,-11.1981 -7.78825,-4.05594 -9.40874,-7.9229 -7.87329,-11.921 0.822054,8.4166 6.06973,8.77212 13.4659,12.5481 9.117,4.65358 10.6076,13.2757 17.0293,15.7608 3.12404,1.20828 3.97917,-1.82364 4.80476,-4.00397 -3.10987,0.852763 -5.6906,0.118111 -6.80675,-5.00555 -1.08544,2.34214 19.134,11.7733 16.0159,-7.40793 -0.612997,-3.77365 -4.2024,-6.02249 -10.8745,-13.9974 -0.884653,-5.09295 -2.31852,-10.1245 -7.43746,-14.7462 -1.28033,-0.263388 -2.79569,-0.923629 -3.99334,-1.24725 1.93939,2.48624 3.10869,6.90596 1.1256,6.28588 -3.22089,-1.00631 -4.78468,-4.65949 -7.97368,-6.19139 -0.375594,0.719297 -0.500791,2.67522 -1.1256,2.15789 -2.25829,-1.86852 -3.81617,-3.49609 -5.49571,-4.3087 0.52087,0.97796 0.888196,2.13545 1.05709,3.52798 0.100394,0.824416 -1.37718,3.88822 -1.47993,1.17166 -0.256301,-6.78785 -5.03154,-7.66541 -10.9052,-9.89772 -3.08388,-1.41379 -2.74254,-0.954338 -1.50237,1.53308 2.56183,5.13665 1.58269,10.5438 5.79335,14.334 1.10788,0.996858 -0.0685045,1.84844 -1.05237,1.13032 -1.87915,-1.37127 -2.81341,-2.97404 -3.42995,-4.73035zm15.2505 -13.8497c2.10356,-0.183072 4.29452,-0.460634 6.391,-0.618903l-1.32521 -6.2658c-0.368507,-1.73978 -2.15907,-2.06813 -2.77207,-0.739376 -1.11379,2.41065 -1.66773,5.03035 -2.29372,7.62408zm6.13942 22.9336c-1.46812,0 -2.65868,1.53426 -2.65868,3.4264 0,1.89214 1.19056,3.42759 2.65868,3.42759 1.46694,0 2.65868,-1.53545 2.65868,-3.42759 0,-1.89214 -1.19174,-3.4264 -2.65868,-3.4264zm-0.296459 1.29922c-0.651974,0 -1.18111,0.506697 -1.18111,1.13032 0,0.624808 0.529138,1.13032 1.18111,1.13032 0.653155,0 1.18229,-0.505516 1.18229,-1.13032 0,-0.623627 -0.529138,-1.13032 -1.18229,-1.13032z"></path></g></svg>