<svg height='100px' width='100px'  fill="#000000" xmlns="http://www.w3.org/2000/svg" xmlns:xlink="http://www.w3.org/1999/xlink" xml:space="preserve" style="shape-rendering:geometricPrecision;text-rendering:geometricPrecision;image-rendering:optimizeQuality;" viewBox="0 0 100 100" x="0px" y="0px" fill-rule="evenodd" clip-rule="evenodd"><defs><style type="text/css">
   
    .fil0 {fill:#000000}
   
  </style></defs><g><path class="fil0" d="M49.9988 78.1849c-18.1501,0 -32.9802,-11.8158 -33.9215,-26.6801 -5.31973,-2.41892 -8.98117,-7.45754 -8.98117,-13.284 0,-11.9682 14.6021,-18.86 25.1541,-12.2505 10.8662,-5.53705 24.6309,-5.53705 35.4971,0 10.5521,-6.6095 25.1553,0.282286 25.1553,12.2505 0,5.82642 -3.66145,10.865 -8.98235,13.284 -0.941346,14.8631 -15.7702,26.6801 -33.9215,26.6801zm-12.8552 -29.412c1.40198,0 2.53821,1.50356 2.53821,3.35672 0,1.85435 -1.13623,3.3579 -2.53821,3.3579 -1.4008,0 -2.53703,-1.50356 -2.53703,-3.3579 0,-1.85316 1.13623,-3.35672 2.53703,-3.35672zm25.7104 0c1.40198,0 2.53821,1.50356 2.53821,3.35672 0,1.85435 -1.13623,3.3579 -2.53821,3.3579 -1.4008,0 -2.53821,-1.50356 -2.53821,-3.3579 0,-1.85316 1.13741,-3.35672 2.53821,-3.35672zm-12.8552 -0.503154c4.64531,0 8.41306,5.29847 8.41306,11.8336 0,6.53391 -3.76775,11.8336 -8.41306,11.8336 -4.64531,0 -8.41306,-5.29965 -8.41306,-11.8336 0,-6.53509 3.76775,-11.8336 8.41306,-11.8336zm0 26.9979c6.23509,0 13.4883,-3.49018 13.4883,-9.47488l1.69253 0c0,3.79019 -2.51577,6.94139 -5.95871,8.87369 12.9355,-3.22325 22.349,-13.0466 22.349,-24.664 0,-14.2371 -14.1379,-25.7837 -31.5711,-25.7837 -17.4332,0 -31.5711,11.5465 -31.5711,25.7837 0,11.6269 9.42881,21.4561 22.3797,24.6722 -3.63901,-2.03978 -5.98942,-5.25831 -5.98942,-8.88196l1.69253 0c0,5.23232 6.04021,9.47488 13.4883,9.47488zm20.2183 -47.9118c7.97841,4.91106 13.271,12.6556 13.7186,21.4372 3.81735,-2.10474 6.56816,-5.87603 6.56816,-10.5721 0,-9.51267 -11.2584,-15.3474 -20.2868,-10.865zm-54.1575 21.5104c0.421657,-8.81936 5.73075,-16.5993 13.7434,-21.5234 -1.95828,-0.97796 -4.21184,-1.42796 -6.6036,-1.53308 -7.90754,-0.349609 -13.7151,6.19729 -13.7044,12.4111 0.00708667,4.49413 2.62797,8.52408 6.56462,10.6454z"></path></g></svg>