<svg height='100px' width='100px'  fill="#000000" xmlns="http://www.w3.org/2000/svg" xmlns:xlink="http://www.w3.org/1999/xlink" xml:space="preserve" style="shape-rendering:geometricPrecision;text-rendering:geometricPrecision;image-rendering:optimizeQuality;" viewBox="0 0 100 100" x="0px" y="0px" fill-rule="evenodd" clip-rule="evenodd"><defs><style type="text/css">
   
    .fil0 {fill:#000000}
   
  </style></defs><g><path class="fil0" d="M50.1087 12.3107c15.7336,0 28.9042,11.0399 32.2609,25.8285 16.3501,-1.22127 8.05282,14.856 2.22403,18.6391 5.00319,16.3206 -12.606,30.9109 -34.4849,30.9109 -21.8069,0 -39.4007,-14.4981 -34.5204,-30.7951 -5.85831,-3.57286 -14.5537,-20.1297 2.25592,-18.7372 3.35081,-14.7981 16.5261,-25.8463 32.2644,-25.8463zm-21.2435 49.2996c7.904,12.495 36.0204,9.35086 42.4149,-0.272837 0.64843,-0.974417 2.59372,-0.561028 1.76694,0.77599 -4.20358,6.79612 -15.2021,9.14417 -22.4518,9.52921 -8.35046,0.442917 -18.6875,-1.45277 -23.4356,-9.16306 -0.975598,-1.58505 0.7441,-2.39057 1.70553,-0.869298zm15.9509 -26.6234c2.86183,0 2.86183,4.34767 0,4.34767 -2.86183,0 -2.86183,-4.34767 0,-4.34767zm10.3678 0c2.86183,0 2.86183,4.34767 0,4.34767 -2.86183,0 -2.86183,-4.34767 0,-4.34767zm34.0503 9.31779c-2.02206,0.103938 -4.26381,1.23426 -6.10162,3.36499 -0.09567,1.54017 -0.296459,3.05199 -0.594099,4.52838 0.344885,0.576382 0.661423,1.16221 0.948433,1.75868 2.79687,-1.99962 5.53823,-6.38509 5.74729,-9.65204zm-78.4707 -0.00118111c2.02088,0.0968512 4.26145,1.22009 6.10162,3.34255 0.09567,1.54844 0.296459,3.06853 0.59528,4.552 -0.344885,0.576382 -0.661423,1.16221 -0.948433,1.75868 -2.79569,-1.99962 -5.54059,-6.38745 -5.74847,-9.65323zm39.3452 -24.8553c23.1037,0 33.5861,15.2222 16.5568,23.2573 9.60244,3.952 16.0466,11.2347 16.0466,19.5651 0,12.5387 -14.5997,22.7092 -32.6034,22.7092 -18.0025,0 -32.6034,-10.1706 -32.6034,-22.7092 0,-8.33038 6.44533,-15.6131 16.0478,-19.5651 -17.0304,-8.0351 -6.54454,-23.2573 16.5556,-23.2573z"></path></g></svg>