<svg height='100px' width='100px'  fill="#000000" xmlns="http://www.w3.org/2000/svg" xmlns:xlink="http://www.w3.org/1999/xlink" xml:space="preserve" style="shape-rendering:geometricPrecision;text-rendering:geometricPrecision;image-rendering:optimizeQuality;" viewBox="0 0 100 100" x="0px" y="0px" fill-rule="evenodd" clip-rule="evenodd"><defs><style type="text/css">
   
    .fil0 {fill:#000000}
   
  </style></defs><g><path class="fil0" d="M53.9272 20.7687c4.05003,0.178348 8.14849,1.05119 12.0473,2.50986 0.153545,-0.888196 0.585831,-1.74214 1.51064,-2.49451 4.46106,-3.6331 9.1359,-4.79768 13.4186,-4.64531 4.72327,0.166537 6.48312,2.23584 6.36619,6.36501 -0.14882,5.25004 -1.23662,9.93669 -3.64609,13.6336 3.49018,4.66775 5.61855,10.1552 5.61855,16.1198 0,17.3871 -19.0313,31.6172 -38.5326,31.6172 -11.8843,0 -25.7081,-5.67052 -31.1766,-13.7328 -3.50436,-5.16854 -1.28859,-16.9182 -0.0377956,-23.6718 0.536225,-2.89254 1.47521,-5.63036 2.76262,-8.16502 -3.30239,0.309451 -10.1954,0.284648 -11.3375,-3.5705 -1.31694,-4.44689 5.55831,-7.6666 8.05636,-10.4209 4.95713,-5.46618 7.85321,-5.97524 15.2493,-5.01146 2.33742,0.304727 4.96539,1.30513 6.03548,3.46302 4.19885,-1.4882 8.817,-2.20868 13.6655,-1.99608zm4.92996 29.9766c1.46222,0 2.64805,2.22285 2.64805,4.96421 0,4.21539 -2.61026,6.45596 -4.31696,3.85397l-2.70829 11.1296c-0.08504,4.26027 -4.81894,7.69612 -10.6454,7.69612 -5.87839,0 -10.6465,-3.49845 -10.6465,-7.81187 0,-1.24725 0.399216,-2.426 1.10788,-3.47129l3.75357 -8.00912c-1.7634,1.71497 -3.8646,-0.715754 -3.8646,-4.41027 0,-2.74136 1.18465,-4.96421 2.64687,-4.96421 2.03151,0 3.04254,3.8079 2.48978,6.65911l0.788983 -1.68308c5.70004,-2.73073 11.5737,-2.62915 16.1375,1.85316 -0.250396,-2.74608 0.825597,-5.80634 2.60908,-5.80634zm-16.9608 -13.33c0.742919,0.40394 0.412208,1.37718 -0.261026,1.063 -3.96381,-1.47521 -5.85359,-1.05946 -9.23511,0.851582 -0.448822,0.178348 -0.8504,-0.23386 -0.418114,-0.753549 3.1075,-2.23703 4.52602,-3.44648 9.91425,-1.16103zm14.8029 0.835046c-0.790164,0.298821 -0.596461,1.30867 0.114568,1.09017 4.14334,-1.04292 7.44809,0.673234 10.519,3.16065 0.420476,0.237403 0.874023,-0.11693 0.517327,-0.689769 -2.67286,-2.71538 -5.38351,-5.17799 -11.1509,-3.56105zm-12.8647 24.5152c4.23074,0 7.88628,1.81183 9.60244,4.43507l2.12128 -8.71188c-3.86578,-4.2957 -8.88314,-4.69019 -14.0682,-2.40238l-3.80082 8.11187c1.73623,-0.902369 3.85633,-1.43269 6.14532,-1.43269zm0.00354333 1.78938c4.89098,0 8.85834,2.76734 8.85834,6.18076 0,3.41223 -3.96735,6.17958 -8.85834,6.17958 -4.89216,0 -8.85834,-2.76734 -8.85834,-6.17958 0,-3.41341 3.96617,-6.18076 8.85834,-6.18076zm-2.8016 16.2958c6.8599,0.790164 12.4584,-0.337798 16.7411,-3.84452 -2.47797,2.78388 -3.75475,4.25909 -5.26776,4.98665 7.40439,-0.346066 14.8052,-2.80396 20.9576,-6.89651 10.6796,-7.10321 17.1119,-18.8872 12.3509,-31.2865 -4.75988,-12.3958 -19.049,-20.6364 -31.9727,-21.2045 -15.4017,-0.675596 -29.7002,8.85598 -32.542,24.1986 -0.990953,5.34689 -3.40514,17.6517 -0.248033,22.3053 4.16106,6.13588 12.9887,10.0784 19.9809,11.7414zm41.3708 -46.2393c2.12718,-3.54452 2.90317,-7.87093 3.02483,-12.1595 0.0968512,-3.41696 -1.24607,-4.3583 -4.59334,-4.47641 -4.55319,-0.160631 -8.6729,1.36773 -12.1926,4.23429 -0.629533,0.512602 -0.865755,1.12324 -0.904732,1.77757 5.67288,2.41774 10.8261,6.07918 14.6659,10.6241zm-43.8842 -11.1745c-0.64843,-1.10906 -2.12718,-1.99844 -4.53429,-2.31262 -7.22722,-0.941346 -9.36031,-0.305908 -13.6501,4.42444 -1.32875,1.46458 -3.96617,3.25632 -5.45319,4.56027 -3.31538,2.90908 -3.0827,5.39414 1.17284,6.14296 2.44018,0.428744 5.03862,0.415751 7.3099,0.0578745 3.45829,-5.70241 8.75558,-10.2048 15.1548,-12.8729z"></path></g></svg>