<svg height='100px' width='100px'  fill="#000000" xmlns="http://www.w3.org/2000/svg" xmlns:xlink="http://www.w3.org/1999/xlink" xml:space="preserve" style="shape-rendering:geometricPrecision;text-rendering:geometricPrecision;image-rendering:optimizeQuality;" viewBox="0 0 100 100" x="0px" y="0px" fill-rule="evenodd" clip-rule="evenodd"><defs><style type="text/css">
   
    .fil0 {fill:#000000}
   
  </style></defs><g><path class="fil0" d="M27.2577 26.151c0.964968,-2.47325 3.80436,-3.6709 6.30714,-3.75712 1.11143,-3.5327 6.8469,-3.44648 10.1457,-1.87442 2.73427,-3.2953 10.6194,-3.10632 14.093,0.322443 4.96303,-2.28663 12.6769,0.49961 12.9096,4.49177 0.514965,0.256301 0.986228,0.590556 1.39726,0.987409 2.28073,-0.65906 4.82012,-0.911818 7.47526,-0.836227 9.54338,0.271656 16.0454,9.29417 16.0454,21.0911 0,11.7958 -6.63785,21.3616 -14.823,21.3616 -2.51813,0 -7.31699,-1.45395 -9.17842,-5.41776 -0.236222,-0.503154 -0.442917,-1.05237 -0.607091,-1.62993 -2.5453,12.0757 -11.0068,20.9494 -21.051,20.9494 -10.0135,0 -18.4537,-8.817 -21.0285,-20.836 -0.158269,0.536225 -0.351971,1.04765 -0.572839,1.51655 -1.86143,3.96381 -6.66029,5.41776 -9.17842,5.41776 -8.1851,0 -14.823,-9.56582 -14.823,-21.3616 0,-11.7969 6.50202,-20.8195 16.0454,-21.0911 2.41301,-0.0685045 4.72917,0.134647 6.84336,0.666147zm22.0655 53.8044l0 -4.49177 -5.31973 -3.25632 0.703943 -1.15276 5.27366 3.22916 5.24295 -3.1264 0.772447 1.10552 -5.31973 3.20554 0 4.4835c10.6985,-0.496067 19.2628,-12.2446 19.2628,-26.6624 0,-2.71301 -0.304727,-5.33272 -0.869298,-7.80006 -2.78742,1.82482 -6.71462,2.25356 -9.81622,1.28033 -2.41301,3.44766 -10.0146,3.52916 -12.8174,0.231498 -3.86342,1.80474 -10.9737,1.47993 -13.1481,-1.8508 -0.764179,0.0153545 -1.53308,-0.06378 -2.27955,-0.235041 -0.651974,2.63388 -1.00513,5.44847 -1.00513,8.37408 0,14.4438 8.59377,26.2089 19.3194,26.666zm-10.695 -28.2912c1.57206,0 2.84648,1.75986 2.84648,3.92956 0,2.17088 -1.27442,3.93074 -2.84648,3.93074 -1.57324,0 -2.84766,-1.75986 -2.84766,-3.93074 0,-2.1697 1.27442,-3.92956 2.84766,-3.92956zm22.7435 0c1.57324,0 2.84766,1.75986 2.84766,3.92956 0,2.17088 -1.27442,3.93074 -2.84766,3.93074 -1.57206,0 -2.84648,-1.75986 -2.84648,-3.93074 0,-2.1697 1.27442,-3.92956 2.84648,-3.92956zm12.5245 -13.956c1.33584,-0.245671 4.76579,-0.837408 5.87721,-0.770085 5.68469,0.348428 9.75834,10.7717 5.59374,16.2545 -5.30083,6.98037 -8.10243,0.327168 -9.35795,-0.246852 -0.243309,-0.111024 -0.612997,0.08504 -0.816148,0.198427 -3.16538,1.75868 -3.25987,5.62563 -1.87206,8.58196 1.53663,3.2705 6.01895,4.91224 9.43472,4.11972 3.35908,-0.778353 5.97761,-3.43467 7.6914,-6.30832 6.89769,-11.5607 2.91616,-31.792 -10.9147,-32.1853 -2.28545,-0.0649611 -4.39019,0.119292 -6.2658,0.579926 0.824416,1.75868 0.592918,3.79609 -0.683864,5.21106 1.12442,1.20946 1.676,2.90081 1.3134,4.565zm-43.2948 -2.27246c-7.11974,3.30239 -1.46812,8.80519 3.92602,7.70557 0.128741,3.30121 9.23275,4.402 12.7288,1.09961 0.171261,4.40318 11.0458,4.40318 10.8733,0 5.56658,3.30239 14.4556,-1.09961 10.7021,-4.402 5.39296,-1.1008 3.36617,-6.60478 -0.257482,-6.60478 5.39296,-1.1008 3.36617,-6.6036 -0.258663,-6.6036 2.84766,-2.65514 -6.38509,-7.05714 -11.0021,-3.30239 -1.98427,-4.402 -12.8588,-4.402 -12.6863,0 -3.75357,-3.30239 -10.9595,-2.20159 -9.01897,1.1008 -5.47918,-1.1008 -8.93157,3.30239 -5.22169,5.5028 -3.62365,0 -5.22051,5.50398 0.214962,5.50398zm-3.61538 -7.43982c-3.61066,-0.94607 -8.4733,-1.11024 -12.0804,0.810243 -9.72645,5.17917 -10.8804,21.4679 -5.3528,30.7313 3.0201,5.06224 8.04101,8.25951 13.6501,5.50162 1.4693,-0.72284 2.76971,-1.80828 3.47601,-3.31302 1.38781,-2.95632 1.29332,-6.82328 -1.87206,-8.58196 -0.766541,-0.426381 -0.953157,-0.252758 -1.69844,0.615359 -0.859849,1.00276 -1.62167,2.05159 -2.96695,2.439 -2.59372,0.745281 -5.11658,-2.07285 -6.16895,-4.03468 -3.15002,-5.87721 1.27442,-15.7962 7.02643,-15.2104l4.6583 0.673234c0.213781,-0.576382 0.539768,-1.10198 0.944889,-1.57678 -2.10592,-1.77403 -1.79647,-5.13429 0.644887,-6.93313 -0.13819,-0.35079 -0.227955,-0.725203 -0.261026,-1.12087zm45.7858 11.8265c-0.360239,0.381499 -0.781896,0.709848 -1.24844,0.982685 0.246852,1.19765 -0.129922,2.3575 -0.875204,3.28821 0.794888,3.05199 1.19765,6.29533 1.15513,9.67212 0.576382,-0.870479 1.38663,-1.64647 2.4827,-2.25474 4.83075,-2.68349 4.45161,7.32289 9.59299,0.55276 3.47601,-4.57681 -0.461815,-13.6808 -4.68783,-13.2509 -2.11891,0.216143 -4.32405,0.597643 -6.41934,1.00985zm-44.6318 13.858c-0.0354333,-3.26695 0.349609,-6.40871 1.09843,-9.3674 -1.9512,-0.900007 -3.68153,-2.58782 -3.84098,-4.83547 -1.526,-0.272837 -3.07916,-0.511421 -4.58862,-0.664966 -4.22602,-0.429925 -8.16384,8.67408 -4.68783,13.2509 5.14138,6.77013 4.76224,-3.23625 9.59299,-0.55276 1.06064,0.589375 1.85316,1.33348 2.426,2.1697z"></path></g></svg>