<svg height='100px' width='100px'  fill="#000000" xmlns="http://www.w3.org/2000/svg" xmlns:xlink="http://www.w3.org/1999/xlink" xml:space="preserve" style="shape-rendering:geometricPrecision;text-rendering:geometricPrecision;image-rendering:optimizeQuality;" viewBox="0 0 100 100" x="0px" y="0px" fill-rule="evenodd" clip-rule="evenodd"><defs><style type="text/css">
   
    .fil0 {fill:#000000}
   
  </style></defs><g><path class="fil0" d="M6.97328 27.7254c-3.24451,7.75636 0.0826778,17.6848 8.04219,19.9761 -1.02166,2.13073 -1.74332,5.94808 -1.11024,7.88983 -4.48468,3.56223 -2.26419,7.92526 2.02561,4.51185 -4.6146,6.88352 -2.02797,8.48629 2.55829,5.14847 -3.2268,5.97879 -0.755911,7.7788 3.2705,3.90121 -2.13899,4.50476 0.402759,6.86344 4.00515,2.64687 0.245671,1.64529 7.19061,6.45596 10.7434,3.77129 8.50991,3.00475 18.2387,3.03191 26.7734,0.0767723 3.4016,3.28585 10.1009,-1.7882 10.3548,-3.48664 3.23388,4.90398 6.86226,2.14136 4.36657,-2.64687 4.56972,3.57641 6.91895,1.61576 3.2705,-4.02169 4.02405,3.31774 7.57447,2.03624 3.04018,-4.5461 3.94846,2.97168 6.16895,-2.03506 1.66537,-4.75279 0.650793,-1.99844 0.09567,-6.27407 -0.831503,-8.54062 7.84258,-2.37876 11.1024,-12.2245 7.88038,-19.9277 -1.88387,-4.50594 -5.60556,-3.98389 -10.9217,-3.98389 -5.60083,0 -10.0052,-0.330711 -12.117,3.71223 -11.908,-7.06541 -28.0691,-7.06541 -39.9783,0 -2.11419,-4.04295 -6.50911,-3.71223 -12.1158,-3.71223 -5.31736,0 -9.03905,-0.522051 -10.9217,3.98389zm43.0267 21.7549c4.27208,0 7.7351,1.92521 7.7351,4.70555 0,2.78034 -3.46302,5.36461 -7.7351,5.36461 -4.2709,0 -7.7351,-2.58427 -7.7351,-5.36461 0,-2.78034 3.4642,-4.70555 7.7351,-4.70555zm-14.3481 -3.47601c1.33348,0 2.04805,1.37363 1.59686,3.06853 -0.451185,1.69371 -1.89923,3.06735 -3.2327,3.06735 -1.33229,0 -2.04805,-1.37363 -1.59686,-3.06735 0.451185,-1.6949 1.89923,-3.06853 3.2327,-3.06853zm28.6975 0c-1.33348,0 -2.04923,1.37363 -1.59804,3.06853 0.452366,1.69371 1.89923,3.06735 3.2327,3.06735 1.33348,0 2.04923,-1.37363 1.59686,-3.06735 -0.451185,-1.6949 -1.89805,-3.06853 -3.23152,-3.06853zm-14.3493 -0.0519689c8.70361,0 15.7619,4.84256 15.7619,10.8143 0,5.97288 -7.05832,10.8154 -15.7619,10.8154 -8.70243,0 -15.7608,-4.84256 -15.7608,-10.8154 0,-5.9717 7.05832,-10.8143 15.7608,-10.8143zm0 1.35828c7.95361,0 14.4025,4.23429 14.4025,9.45598 0,5.22169 -6.44887,9.45598 -14.4025,9.45598 -7.95242,0 -14.4025,-4.23429 -14.4025,-9.45598 0,-5.22169 6.45005,-9.45598 14.4025,-9.45598zm21.8057 -18.7005c1.62521,-0.158269 3.9142,-0.875204 5.10949,-1.05946 2.05277,-0.315357 3.86224,-1.51891 6.1158,-1.51891 0,-0.142915 5.82524,0.814967 6.31186,2.27364 -3.35908,-0.381499 -3.83861,-0.83977 -6.31186,-0.83977 0,-0.164175 -5.44374,1.92049 -5.83115,1.98072 -1.09135,0.167718 -2.36104,0.377956 -3.55987,0.509059 5.37524,4.23665 9.05322,9.90244 10.1127,16.2486 0.13819,0.243309 0.369688,0.336617 0.687407,0.237403 7.33116,-1.98663 10.2603,-11.1946 7.3347,-18.1927 -1.00513,-2.40356 -2.54293,-2.96931 -5.01382,-3.12168 -1.65356,-0.101576 -8.82881,-0.0543311 -10.3217,0.0897645 -2.54175,0.245671 -4.17523,0.779534 -5.29138,2.95632 0.220868,0.144096 0.440555,0.289372 0.657879,0.437011zm14.5773 2.30317c2.2264,-0.543311 3.26814,1.96537 3.69806,4.70437 -1.67482,-1.99844 -3.55042,-2.79097 -3.69806,-2.79097 0,-0.0437011 -5.89611,0.87166 -6.34729,0.87166 2.0008,-1.76104 3.47955,-2.78506 6.34729,-2.78506zm-24.6073 -4.36775c2.63506,1.33229 7.9914,3.78428 7.76227,5.25595 -2.34569,-0.585831 -3.70987,-1.2697 -5.66697,-2.63152 -0.927173,-0.644887 -3.73468,-0.798431 -5.23232,-1.54726 -0.875204,-0.311813 -5.9469,0.324806 -6.36974,0.347247 2.16616,-3.29294 7.33588,-2.52285 9.50677,-1.42442zm-7.38785 2.76144c2.13663,0.891739 3.19136,1.54253 4.31578,2.74608 1.43978,1.54135 3.67916,-0.0732289 5.92209,1.45985 2.31616,1.58387 3.61538,2.58545 4.56382,4.61224 -2.7827,-0.583469 -3.91657,-1.85198 -5.64217,-3.03191 -1.55789,-1.06536 -4.11499,0.667328 -6.27407,-1.77521 -1.83427,-2.07403 -1.69253,-1.05946 -2.88546,-4.01106zm-10.4906 3.38034c-0.699218,0.556304 -0.79725,1.7386 -1.61104,2.10828 -2.56419,1.16812 -5.46264,2.75435 -7.82959,3.60475 0.814967,-2.44254 4.70555,-3.53152 6.62367,-5.08705 0.641344,-0.519689 0.894102,-1.54135 1.62639,-2.12364 1.52363,-1.213 3.4831,-1.99017 4.88744,-3.2953 0.118111,3.21971 -1.60631,3.12876 -3.69688,4.79295zm-0.316538 -8.63865c-0.819691,0.960244 -2.1886,2.34687 -3.2327,2.72482 -2.02561,0.734651 -5.24059,5.10595 -7.89337,3.72286 1.60277,-0.246852 2.8642,-2.77325 4.24492,-3.86814 0.57402,-0.455909 1.80001,-0.809061 2.9516,-1.74096 -11.0422,2.95396 -20.2466,10.6666 -22.199,22.362 -2.82404,0.877566 -2.68703,6.59651 -1.96301,8.81818 -1.01339,0.805518 -2.20159,1.69017 -2.59845,2.98467 -0.474807,1.54726 4.30043,-0.898826 5.76973,-1.53545 -0.0566934,-1.50356 0.58465,-2.78388 1.62521,-4.95594 0.809061,-1.68899 -2.53112,-3.47129 -0.856306,-6.62958 1.04765,-1.97482 5.02799,-6.30123 7.09258,-7.47998 -1.66182,2.78034 -3.94019,5.61855 -5.40004,8.37054 -1.08898,2.05395 2.28545,3.64137 0.887015,6.56344 -1.6382,3.41932 -2.02797,4.08783 -0.00236222,7.90518 1.2567,2.37167 2.31025,4.84846 3.98743,6.95675 -0.951976,-0.312995 -1.6949,-0.695675 -2.30317,-1.1445 -0.657879,1.88387 -1.66301,4.83901 -1.26497,5.54532 0.972055,0.147639 1.71734,-0.851582 3.74885,-3.27404 0.706305,3.78546 6.72289,7.291 10.0973,4.67366 9.27763,3.27404 18.0698,3.25869 27.3534,0.04252 0.511421,0.494886 0.88229,1.01103 1.61222,1.16812 3.73231,0.805518 7.39494,-3.36262 8.27251,-5.83705 0.152363,1.02993 3.68389,5.8276 3.95791,3.21499 0.0129922,-1.60749 -1.09843,-4.5024 -1.45985,-6.19257 1.39253,0.983866 3.99806,3.38507 5.69886,3.51381 0.0649611,-1.45041 -2.11419,-5.15437 -2.64215,-7.29455 1.72324,0.842133 4.72327,3.36144 6.00832,3.23625 0.173623,-1.05709 -2.35041,-5.23469 -2.84175,-6.93903 2.45907,0.814967 4.32405,2.25947 4.81539,1.13741 0.245671,-0.558666 -0.292916,-1.84962 -2.69412,-3.29766 0.820873,-2.52167 0.721659,-5.94572 -0.383861,-8.49219 -0.30827,-0.453547 -0.849219,-0.162993 -1.45985,-1.21418 -1.513,-7.67014 -5.62563,-13.7033 -12.4477,-18.0037 -7.82132,-4.92996 -17.523,-6.48194 -26.4805,-5.04098zm-18.4679 32.5869c-0.0377956,1.0252 1.87206,1.19056 2.65041,3.21499 1.02993,2.67522 0.343703,4.24255 0.343703,6.32722 -1.65356,-2.65396 -1.09135,-2.95632 -2.126,-5.64571 -0.582288,-1.51419 -3.94964,-1.7445 -2.576,-4.75043 2.02797,-4.43626 0.114568,-9.22212 4.88272,-13.9159 -0.0200789,0.572839 -1.47048,3.77365 -1.70434,7.21895 -0.207876,3.07207 -1.41615,6.09217 -1.47048,7.55085zm-2.07876 9.91071c-0.955519,-0.928354 -1.54371,-2.08112 -2.23939,-3.43703 -1.08662,2.1449 -2.49569,4.62051 -2.426,6.71816 1.82246,-0.64843 3.02719,-1.97246 4.66539,-3.28113zm-2.59136 -4.11854c-0.941346,-1.78938 -1.62285,-3.41341 -1.75041,-4.5024 -1.18938,2.17443 -3.79491,5.73784 -3.83507,7.64297 1.95828,-0.307089 3.70633,-1.95474 5.58548,-3.14058zm1.62403 -28.3656c-1.58978,-0.884653 -4.42444,-1.43741 -5.99769,-1.43741 1.8012,-1.90868 5.46855,-1.16812 7.31462,0 1.61222,-1.64765 3.44766,-3.14176 5.46973,-4.45161 -1.11733,-2.17679 -2.75081,-2.71065 -5.29138,-2.95632 -1.49293,-0.144096 -8.66818,-0.19134 -10.3217,-0.0897645 -2.47089,0.152363 -4.00869,0.718116 -5.01382,3.12168 -2.95632,7.07132 0.0649611,16.4009 7.56974,18.2529 0.151182,-0.151182 0.303546,-0.25512 0.453547,-0.301183 0.746463,-4.47169 2.79333,-8.60558 5.81697,-12.1383zm-11.7355 -6.84336c3.9957,-3.30239 3.96263,0.734651 7.08195,0.773628 1.98191,0 3.36853,-2.06222 4.80594,1.29804 -1.55552,-1.16339 -3.47719,0.726384 -4.80594,0.61654 -1.81064,-0.151182 -4.04413,-2.71538 -5.86186,-1.213 -1.8319,1.513 -1.8886,7.2036 -2.88309,9.28826 -1.04292,-2.72601 -0.576382,-8.91385 1.66301,-10.7635zm60.2402 15.4218c2.39293,1.063 5.65871,4.41145 4.06184,7.30754 -0.572839,1.03938 -1.4445,1.55434 0.12756,2.44254 3.18428,1.79883 1.13387,3.96972 0.985047,5.76382 -0.218506,2.63152 -3.58467,3.80436 -5.36933,5.04098 0.511421,-2.04805 3.35318,-3.91657 3.45948,-5.19807 0.150001,-1.82246 1.47048,-3.1075 -0.0118111,-3.94491 -2.77797,-1.5697 -2.57719,-2.21222 -1.38781,-4.14334 1.48348,-2.56065 -2.7579,-5.24886 -1.86498,-7.26856zm7.71384 -2.07639c4.22956,5.50044 2.47089,13.421 0.263388,19.2214 -0.995677,2.61498 -1.25198,5.47209 -4.21893,7.50006 0,-1.70671 1.39962,-3.14766 1.79529,-4.29334 0.366145,-1.06418 -0.172442,-2.61144 0.633076,-3.88822 3.33546,-5.29256 1.74096,-17.2147 1.52718,-18.5399zm-37.9066 28.5557c6.6721,2.21695 12.9556,1.74568 19.2261,-0.0307089 1.07599,-0.304727 1.41025,0.843314 0.3189,1.15276 -6.4406,1.82482 -12.9615,2.30199 -19.8226,0.0460634 -1.1315,-0.37205 -0.76536,-1.51419 0.277561,-1.16812z"></path></g></svg>